<svg xmlns="http://www.w3.org/2000/svg" width="1600" height="1120" viewBox="0 0 1600 1120" role="img" aria-labelledby="title desc">
  <title id="title">Financial Research System 系统架构</title>
  <desc id="desc">展示 Web 与命令行入口、FastAPI 服务、LangGraph 状态工作流、四类 Agent、工具系统、知识库、模型网关、变量记忆以及报告和证据审计输出。</desc>
  <defs>
    <linearGradient id="bg" x1="0" y1="0" x2="1" y2="1">
      <stop offset="0%" stop-color="#F7F9FF"/>
      <stop offset="55%" stop-color="#F8FBFF"/>
      <stop offset="100%" stop-color="#F2FAF8"/>
    </linearGradient>
    <linearGradient id="hero" x1="0" y1="0" x2="1" y2="0">
      <stop offset="0%" stop-color="#172554"/>
      <stop offset="52%" stop-color="#1E3A8A"/>
      <stop offset="100%" stop-color="#0F766E"/>
    </linearGradient>
    <linearGradient id="orchestrator" x1="0" y1="0" x2="1" y2="0">
      <stop offset="0%" stop-color="#EEF2FF"/>
      <stop offset="100%" stop-color="#ECFDF5"/>
    </linearGradient>
    <filter id="shadow" x="-20%" y="-20%" width="140%" height="150%">
      <feDropShadow dx="0" dy="5" stdDeviation="7" flood-color="#0F172A" flood-opacity="0.10"/>
    </filter>
    <marker id="arrow-blue" markerWidth="10" markerHeight="10" refX="8" refY="5" orient="auto">
      <path d="M0,0 L10,5 L0,10 Z" fill="#3B82F6"/>
    </marker>
    <marker id="arrow-green" markerWidth="10" markerHeight="10" refX="8" refY="5" orient="auto">
      <path d="M0,0 L10,5 L0,10 Z" fill="#0F9F8F"/>
    </marker>
    <marker id="arrow-slate" markerWidth="10" markerHeight="10" refX="8" refY="5" orient="auto">
      <path d="M0,0 L10,5 L0,10 Z" fill="#64748B"/>
    </marker>
    <style>
      .title { font: 700 30px Inter, Arial, "PingFang SC", "Microsoft YaHei", sans-serif; fill: #FFFFFF; }
      .subtitle { font: 400 15px Inter, Arial, "PingFang SC", "Microsoft YaHei", sans-serif; fill: #DCE7FF; }
      .layer { font: 700 14px Inter, Arial, "PingFang SC", "Microsoft YaHei", sans-serif; fill: #475569; letter-spacing: 1.5px; }
      .card-title { font: 700 18px Inter, Arial, "PingFang SC", "Microsoft YaHei", sans-serif; fill: #172554; }
      .card-title-sm { font: 700 16px Inter, Arial, "PingFang SC", "Microsoft YaHei", sans-serif; fill: #172554; }
      .body { font: 400 13px Inter, Arial, "PingFang SC", "Microsoft YaHei", sans-serif; fill: #526175; }
      .body-sm { font: 400 12px Inter, Arial, "PingFang SC", "Microsoft YaHei", sans-serif; fill: #64748B; }
      .pill { font: 600 12px Inter, Arial, "PingFang SC", "Microsoft YaHei", sans-serif; fill: #1E3A8A; }
      .white-pill { font: 600 12px Inter, Arial, "PingFang SC", "Microsoft YaHei", sans-serif; fill: #E0F2FE; }
      .number { font: 700 12px Inter, Arial, sans-serif; fill: #FFFFFF; }
      .output { font: 700 15px Inter, Arial, "PingFang SC", "Microsoft YaHei", sans-serif; fill: #FFFFFF; }
      .line { fill: none; stroke-linecap: round; stroke-linejoin: round; }
    </style>
  </defs>

  <rect width="1600" height="1120" rx="28" fill="url(#bg)"/>
  <rect x="24" y="24" width="1552" height="88" rx="20" fill="url(#hero)" filter="url(#shadow)"/>
  <circle cx="70" cy="68" r="22" fill="#FFFFFF" fill-opacity="0.15"/>
  <path d="M58 73 L66 65 L74 70 L84 57" class="line" stroke="#5EEAD4" stroke-width="4"/>
  <circle cx="58" cy="73" r="3" fill="#FFFFFF"/>
  <circle cx="66" cy="65" r="3" fill="#FFFFFF"/>
  <circle cx="74" cy="70" r="3" fill="#FFFFFF"/>
  <circle cx="84" cy="57" r="3" fill="#FFFFFF"/>
  <text x="108" y="61" class="title">Financial Research System · 系统架构</text>
  <text x="108" y="87" class="subtitle">异步多 Agent 研究编排 · Agentic RAG · 可恢复状态 · 可审计证据链</text>
  <g transform="translate(1202,48)">
    <rect width="108" height="27" rx="13.5" fill="#FFFFFF" fill-opacity="0.12"/>
    <text x="54" y="18" class="white-pill" text-anchor="middle">Python / asyncio</text>
    <rect x="118" width="95" height="27" rx="13.5" fill="#FFFFFF" fill-opacity="0.12"/>
    <text x="165.5" y="18" class="white-pill" text-anchor="middle">FastAPI</text>
    <rect x="223" width="104" height="27" rx="13.5" fill="#FFFFFF" fill-opacity="0.12"/>
    <text x="275" y="18" class="white-pill" text-anchor="middle">React 18</text>
  </g>

  <text x="48" y="144" class="layer">01 · 交互与接入层</text>
  <g filter="url(#shadow)">
    <rect x="48" y="160" width="610" height="112" rx="18" fill="#FFFFFF" stroke="#C7D2FE"/>
    <rect x="680" y="160" width="350" height="112" rx="18" fill="#FFFFFF" stroke="#C7D2FE"/>
    <rect x="1052" y="160" width="500" height="112" rx="18" fill="#FFFFFF" stroke="#99F6E4"/>
  </g>
  <circle cx="84" cy="194" r="17" fill="#4F46E5"/><text x="84" y="198" class="number" text-anchor="middle">UI</text>
  <text x="113" y="193" class="card-title">React Web Console</text>
  <text x="113" y="217" class="body">系统配置 · 研究任务 · 实时执行 · 报告预览 · 知识库管理</text>
  <rect x="113" y="232" width="92" height="22" rx="11" fill="#EEF2FF"/><text x="159" y="247" class="pill" text-anchor="middle">Ant Design</text>
  <rect x="215" y="232" width="86" height="22" rx="11" fill="#EEF2FF"/><text x="258" y="247" class="pill" text-anchor="middle">React Router</text>
  <rect x="311" y="232" width="74" height="22" rx="11" fill="#EEF2FF"/><text x="348" y="247" class="pill" text-anchor="middle">Vite</text>

  <circle cx="716" cy="194" r="17" fill="#4F46E5"/><text x="716" y="198" class="number" text-anchor="middle">&gt;_</text>
  <text x="745" y="193" class="card-title">CLI / YAML</text>
  <text x="716" y="218" class="body">run_report.py · 研究目标与任务配置</text>
  <text x="716" y="242" class="body-sm">--fresh · --max-concurrent · checkpoint resume</text>

  <circle cx="1088" cy="194" r="17" fill="#0F9F8F"/><text x="1088" y="198" class="number" text-anchor="middle">API</text>
  <text x="1117" y="193" class="card-title">FastAPI Application</text>
  <text x="1088" y="218" class="body">REST API · BackgroundTasks · 配置/任务/报告/知识库路由</text>
  <rect x="1088" y="232" width="108" height="22" rx="11" fill="#ECFDF5"/><text x="1142" y="247" class="pill" text-anchor="middle">Pydantic v2</text>
  <rect x="1206" y="232" width="122" height="22" rx="11" fill="#ECFDF5"/><text x="1267" y="247" class="pill" text-anchor="middle">WebSocket 日志</text>
  <rect x="1338" y="232" width="88" height="22" rx="11" fill="#ECFDF5"/><text x="1382" y="247" class="pill" text-anchor="middle">Uvicorn</text>

  <path d="M353 160 V132 H1302 V151" class="line" stroke="#3B82F6" stroke-width="2.5" marker-end="url(#arrow-blue)"/>
  <path d="M855 272 V306" class="line" stroke="#3B82F6" stroke-width="2.5" marker-end="url(#arrow-blue)"/>
  <path d="M1302 272 V306" class="line" stroke="#0F9F8F" stroke-width="2.5" marker-end="url(#arrow-green)"/>

  <text x="48" y="308" class="layer">02 · 研究编排层</text>
  <g filter="url(#shadow)">
    <rect x="48" y="324" width="1504" height="126" rx="20" fill="url(#orchestrator)" stroke="#93C5FD" stroke-width="1.5"/>
  </g>
  <circle cx="88" cy="362" r="20" fill="#2563EB"/><text x="88" y="366" class="number" text-anchor="middle">02</text>
  <text x="120" y="362" class="card-title">LangGraph Research Workflow</text>
  <text x="120" y="387" class="body">以持久状态图推进规划、检索、采集、分析、报告与审计，并在采集/分析节点内并发执行。</text>
  <g transform="translate(120,404)">
    <rect width="230" height="28" rx="14" fill="#DBEAFE"/><text x="115" y="19" class="pill" text-anchor="middle">① Plan + Retrieve</text>
    <path d="M240 14 H274" class="line" stroke="#60A5FA" stroke-width="2" marker-end="url(#arrow-blue)"/>
    <rect x="286" width="230" height="28" rx="14" fill="#E0E7FF"/><text x="401" y="19" class="pill" text-anchor="middle">② Collect + Analyze</text>
    <path d="M526 14 H560" class="line" stroke="#60A5FA" stroke-width="2" marker-end="url(#arrow-blue)"/>
    <rect x="572" width="230" height="28" rx="14" fill="#CCFBF1"/><text x="687" y="19" class="pill" text-anchor="middle">③ Report + Audit</text>
  </g>
  <g transform="translate(1030,346)">
    <rect width="145" height="31" rx="15.5" fill="#FFFFFF" stroke="#BFDBFE"/><text x="72.5" y="20" class="pill" text-anchor="middle">asyncio.Semaphore</text>
    <rect x="158" width="130" height="31" rx="15.5" fill="#FFFFFF" stroke="#BFDBFE"/><text x="223" y="20" class="pill" text-anchor="middle">Task Mapping</text>
    <rect x="301" width="157" height="31" rx="15.5" fill="#FFFFFF" stroke="#A7F3D0"/><text x="379.5" y="20" class="pill" text-anchor="middle">SQLite Checkpointer</text>
    <rect y="45" width="145" height="31" rx="15.5" fill="#FFFFFF" stroke="#BFDBFE"/><text x="72.5" y="65" class="pill" text-anchor="middle">动态任务生成</text>
    <rect x="158" y="45" width="130" height="31" rx="15.5" fill="#FFFFFF" stroke="#BFDBFE"/><text x="223" y="65" class="pill" text-anchor="middle">LangChain Retriever</text>
    <rect x="301" y="45" width="157" height="31" rx="15.5" fill="#FFFFFF" stroke="#A7F3D0"/><text x="379.5" y="65" class="pill" text-anchor="middle">状态事件与失败隔离</text>
  </g>

  <path d="M800 450 V481" class="line" stroke="#3B82F6" stroke-width="3" marker-end="url(#arrow-blue)"/>
  <text x="48" y="484" class="layer">03 · AGENT 执行层</text>
  <g filter="url(#shadow)">
    <rect x="48" y="500" width="350" height="142" rx="18" fill="#FFFFFF" stroke="#BFDBFE"/>
    <rect x="432" y="500" width="350" height="142" rx="18" fill="#FFFFFF" stroke="#BFDBFE"/>
    <rect x="816" y="500" width="350" height="142" rx="18" fill="#FFFFFF" stroke="#C4B5FD"/>
    <rect x="1200" y="500" width="352" height="142" rx="18" fill="#FFFFFF" stroke="#99F6E4"/>
  </g>
  <rect x="66" y="518" width="44" height="44" rx="12" fill="#DBEAFE"/><text x="88" y="546" font-size="24" text-anchor="middle">⌕</text>
  <text x="124" y="536" class="card-title-sm">DataCollector</text>
  <text x="124" y="557" class="body-sm">结构化金融数据与公开资料采集</text>
  <text x="66" y="588" class="body">• 工具选择与多轮 Agent Loop</text>
  <text x="66" y="610" class="body">• 写入统一采集结果与来源信息</text>

  <rect x="450" y="518" width="44" height="44" rx="12" fill="#DBEAFE"/><text x="472" y="546" font-size="23" text-anchor="middle">◎</text>
  <text x="508" y="536" class="card-title-sm">DeepSearchAgent</text>
  <text x="508" y="557" class="body-sm">复杂问题的多轮搜索、阅读与整合</text>
  <text x="450" y="588" class="body">• 搜索引擎、网页抓取、PDF 阅读</text>
  <text x="450" y="610" class="body">• 作为深度检索能力被采集流程调用</text>

  <rect x="834" y="518" width="44" height="44" rx="12" fill="#EDE9FE"/><text x="856" y="546" font-size="22" text-anchor="middle">ƒx</text>
  <text x="892" y="536" class="card-title-sm">DataAnalyzer</text>
  <text x="892" y="557" class="body-sm">数据计算、解释、图表与分析草稿</text>
  <text x="834" y="588" class="body">• pandas / NumPy / Matplotlib</text>
  <text x="834" y="610" class="body">• 受限 Python 代码执行器</text>

  <rect x="1218" y="518" width="44" height="44" rx="12" fill="#CCFBF1"/><text x="1240" y="546" font-size="22" text-anchor="middle">▤</text>
  <text x="1276" y="536" class="card-title-sm">ReportGenerator</text>
  <text x="1276" y="557" class="body-sm">大纲、章节写作、润色与报告后处理</text>
  <text x="1218" y="588" class="body">• 章节级证据检索与引用保持</text>
  <text x="1218" y="610" class="body">• 封面、摘要、参考文献与导出</text>

  <path d="M398 571 H432" class="line" stroke="#64748B" stroke-width="2" stroke-dasharray="6 5" marker-end="url(#arrow-slate)"/>

  <path d="M800 642 V676" class="line" stroke="#64748B" stroke-width="2.5" marker-end="url(#arrow-slate)"/>
  <text x="48" y="678" class="layer">04 · 共享能力与状态层</text>
  <g filter="url(#shadow)">
    <rect x="48" y="694" width="350" height="190" rx="18" fill="#FFFFFF" stroke="#BAE6FD"/>
    <rect x="432" y="694" width="350" height="190" rx="18" fill="#FFFFFF" stroke="#99F6E4"/>
    <rect x="816" y="694" width="350" height="190" rx="18" fill="#FFFFFF" stroke="#FDE68A"/>
    <rect x="1200" y="694" width="352" height="190" rx="18" fill="#FFFFFF" stroke="#C4B5FD"/>
  </g>

  <text x="70" y="728" class="card-title-sm">🧰 Tool Registry</text>
  <text x="70" y="754" class="body">金融数据</text>
  <text x="158" y="754" class="body-sm">AkShare · efinance · yfinance · FRED</text>
  <text x="70" y="780" class="body">联网检索</text>
  <text x="158" y="780" class="body-sm">Serper · Bing · Bocha</text>
  <text x="70" y="806" class="body">内容获取</text>
  <text x="158" y="806" class="body-sm">Playwright · Crawl4AI · PDF</text>
  <text x="70" y="832" class="body">代码工具</text>
  <text x="158" y="832" class="body-sm">受限导入 · 工作目录 · Timeout</text>
  <rect x="70" y="848" width="137" height="22" rx="11" fill="#E0F2FE"/><text x="138.5" y="863" class="pill" text-anchor="middle">自动发现与注册</text>

  <text x="454" y="728" class="card-title-sm">📚 Knowledge Base</text>
  <text x="454" y="754" class="body">文档解析</text>
  <text x="542" y="754" class="body-sm">PDF · DOCX · MD · TXT</text>
  <text x="454" y="780" class="body">主数据</text>
  <text x="542" y="780" class="body-sm">SQLite · 元数据 · 版本 · 状态</text>
  <text x="454" y="806" class="body">混合召回</text>
  <text x="542" y="806" class="body-sm">FTS5 + Local Vector / Qdrant</text>
  <text x="454" y="832" class="body">结果融合</text>
  <text x="542" y="832" class="body-sm">RRF · 过滤 · 来源多样性</text>
  <rect x="454" y="848" width="150" height="22" rx="11" fill="#CCFBF1"/><text x="529" y="863" class="pill" text-anchor="middle">KB:evidence_id</text>

  <text x="838" y="728" class="card-title-sm">🧠 Variable Memory</text>
  <text x="838" y="754" class="body">共享数据</text>
  <text x="926" y="754" class="body-sm">采集结果 · 分析结果 · 图片</text>
  <text x="838" y="780" class="body">任务状态</text>
  <text x="926" y="780" class="body-sm">Agent 映射 · 优先级 · 完成状态</text>
  <text x="838" y="806" class="body">依赖上下文</text>
  <text x="926" y="806" class="body-sm">按任务选择所需数据</text>
  <text x="838" y="832" class="body">持久化</text>
  <text x="926" y="832" class="body-sm">dill Checkpoint · 恢复校验</text>
  <rect x="838" y="848" width="146" height="22" rx="11" fill="#FEF3C7"/><text x="911" y="863" class="pill" text-anchor="middle">Knowledge Snapshot</text>

  <text x="1222" y="728" class="card-title-sm">◈ Model Gateway</text>
  <text x="1222" y="754" class="body">文本模型</text>
  <text x="1310" y="754" class="body-sm">任务拆解 · 推理 · 写作</text>
  <text x="1222" y="780" class="body">视觉模型</text>
  <text x="1310" y="780" class="body-sm">图表理解与报告质检</text>
  <text x="1222" y="806" class="body">Embedding</text>
  <text x="1310" y="806" class="body-sm">文档片段和查询向量化</text>
  <text x="1222" y="832" class="body">协议</text>
  <text x="1310" y="832" class="body-sm">OpenAI-compatible API</text>
  <rect x="1222" y="848" width="172" height="22" rx="11" fill="#EDE9FE"/><text x="1308" y="863" class="pill" text-anchor="middle">独立模型角色配置</text>

  <path d="M223 694 V662 H1376 V694" class="line" stroke="#94A3B8" stroke-width="1.8"/>
  <path d="M607 662 V694 M991 662 V694" class="line" stroke="#94A3B8" stroke-width="1.8"/>

  <text x="48" y="922" class="layer">05 · 报告交付与证据审计</text>
  <g filter="url(#shadow)">
    <rect x="48" y="940" width="1504" height="132" rx="20" fill="#172554"/>
  </g>
  <path d="M1376 642 H1570 V914 H1510 V930" class="line" stroke="#0F9F8F" stroke-width="3" marker-end="url(#arrow-green)"/>
  <g transform="translate(78,966)">
    <rect width="250" height="76" rx="15" fill="#FFFFFF" fill-opacity="0.10" stroke="#FFFFFF" stroke-opacity="0.18"/>
    <text x="22" y="30" class="output">研究中间产物</text>
    <text x="22" y="54" class="subtitle">原始数据 · 分析草稿 · PNG 图表</text>

    <path d="M266 38 H300" class="line" stroke="#5EEAD4" stroke-width="2.5" marker-end="url(#arrow-green)"/>
    <rect x="316" width="250" height="76" rx="15" fill="#FFFFFF" fill-opacity="0.10" stroke="#FFFFFF" stroke-opacity="0.18"/>
    <text x="338" y="30" class="output">结构化研报</text>
    <text x="338" y="54" class="subtitle">Markdown · DOCX · PDF</text>

    <path d="M582 38 H616" class="line" stroke="#5EEAD4" stroke-width="2.5" marker-end="url(#arrow-green)"/>
    <rect x="632" width="314" height="76" rx="15" fill="#FFFFFF" fill-opacity="0.10" stroke="#FFFFFF" stroke-opacity="0.18"/>
    <text x="654" y="30" class="output">稳定引用与参考文献</text>
    <text x="654" y="54" class="subtitle">精确解析 KB ID · 未验证引用显式标记</text>

    <path d="M962 38 H996" class="line" stroke="#5EEAD4" stroke-width="2.5" marker-end="url(#arrow-green)"/>
    <rect x="1012" width="384" height="76" rx="15" fill="#0F766E" stroke="#5EEAD4" stroke-opacity="0.5"/>
    <text x="1034" y="30" class="output">可审计研究结果</text>
    <text x="1034" y="54" class="subtitle">.knowledge.json · 原文/页码/日期/版本快照</text>
  </g>

  <text x="800" y="1100" class="body-sm" text-anchor="middle">Financial Research System · Architecture aligned with the current codebase</text>
</svg>
